<svg id="megaphone" xmlns="http://www.w3.org/2000/svg" width="29.869" height="33.854" viewBox="0 0 29.869 33.854">
  <g id="Group_900" data-name="Group 900" transform="translate(12.3 0.271)">
    <g id="Group_899" data-name="Group 899">
      <path id="Path_1912" data-name="Path 1912" d="M232.753,17.885,219.55,4.679a1.984,1.984,0,1,0-2.807,2.806l13.206,13.2a1.983,1.983,0,0,0,2.8-2.8Z" transform="translate(-216.163 -4.1)" fill="#b1b1b1"/>
    </g>
  </g>
  <g id="Group_902" data-name="Group 902" transform="translate(7.099 5.482)">
    <g id="Group_901" data-name="Group 901">
      <path id="Path_1913" data-name="Path 1913" d="M142.3,82.905l-.1.5a21.322,21.322,0,0,1-4.7,9.524l7.184,7.184a21.25,21.25,0,0,1,9.478-4.749l.5-.1Z" transform="translate(-137.494 -82.905)" fill="#b1b1b1"/>
    </g>
  </g>
  <g id="Group_904" data-name="Group 904" transform="translate(0 16.992)">
    <g id="Group_903" data-name="Group 903">
      <path id="Path_1914" data-name="Path 1914" d="M35.917,256.989l-4.91,4.909a2.975,2.975,0,0,0,0,4.208l2.8,2.8a2.975,2.975,0,0,0,4.208,0L42.93,264Zm.7,7.715a.992.992,0,0,1-1.4-1.4l1.4-1.4a.992.992,0,1,1,1.4,1.4Z" transform="translate(-30.136 -256.989)" fill="#b1b1b1"/>
    </g>
  </g>
  <g id="Group_906" data-name="Group 906" transform="translate(10.69 22.883)">
    <g id="Group_905" data-name="Group 905">
      <path id="Path_1915" data-name="Path 1915" d="M198.058,352.634l1.349-1.349a2.973,2.973,0,0,0,0-4.207l-1-1a18.781,18.781,0,0,0-1.6,1.208l1.2,1.2a.99.99,0,0,1,0,1.4l-1.371,1.372-2.016-1.953-2.805,2.805,4.5,4.36a1.984,1.984,0,0,0,2.8-2.807Z" transform="translate(-191.813 -346.075)" fill="#b1b1b1"/>
    </g>
  </g>
  <g id="Group_908" data-name="Group 908" transform="translate(19.951)">
    <g id="Group_907" data-name="Group 907">
      <path id="Path_1916" data-name="Path 1916" d="M332.856,0a.991.991,0,0,0-.992.992V2.975a.992.992,0,1,0,1.984,0V.992A.991.991,0,0,0,332.856,0Z" transform="translate(-331.864)" fill="#b1b1b1"/>
    </g>
  </g>
  <g id="Group_910" data-name="Group 910" transform="translate(25.902 7.935)">
    <g id="Group_909" data-name="Group 909">
      <path id="Path_1917" data-name="Path 1917" d="M424.839,120h-1.984a.992.992,0,1,0,0,1.984h1.984a.992.992,0,0,0,0-1.984Z" transform="translate(-421.864 -120)" fill="#b1b1b1"/>
    </g>
  </g>
  <g id="Group_912" data-name="Group 912" transform="translate(23.918 1.984)">
    <g id="Group_911" data-name="Group 911">
      <path id="Path_1918" data-name="Path 1918" d="M395.54,30.29a.991.991,0,0,0-1.4,0l-1.984,1.984a.992.992,0,0,0,1.4,1.4l1.984-1.984A.991.991,0,0,0,395.54,30.29Z" transform="translate(-391.864 -30)" fill="#b1b1b1"/>
    </g>
  </g>
</svg>
