<svg xmlns="http://www.w3.org/2000/svg" width="36.307" height="32.301" viewBox="0 0 36.307 32.301">
  <g id="Group_6578" data-name="Group 6578" transform="translate(0.15 0.15)">
    <g id="Group_2713" data-name="Group 2713">
      <path id="Path_18845" data-name="Path 18845" d="M25.233,9.3a.617.617,0,0,0,.609-.625v-6.8A1.854,1.854,0,0,0,24.015,0H1.835A1.854,1.854,0,0,0,.007,1.875V30.126A1.854,1.854,0,0,0,1.835,32h22.18a1.854,1.854,0,0,0,1.828-1.875v-4.6a.61.61,0,1,0-1.219,0v4.6a.618.618,0,0,1-.609.625H1.835a.618.618,0,0,1-.609-.625V1.875a.618.618,0,0,1,.609-.625h22.18a.618.618,0,0,1,.609.625v6.8A.617.617,0,0,0,25.233,9.3Z" transform="translate(-0.007)" fill="#b1b1b1" stroke="#b1b1b1" stroke-width="0.3"/>
    </g>
    <g id="Group_2715" data-name="Group 2715" transform="translate(6.991 2.783)">
      <path id="Path_18846" data-name="Path 18846" d="M126.452,54a6.442,6.442,0,0,0-4.422,11.13.694.694,0,0,0,.075.07,6.433,6.433,0,0,0,8.693,0,.7.7,0,0,0,.075-.07A6.442,6.442,0,0,0,126.452,54Zm0,11.489a5.017,5.017,0,0,1-3.047-1.028,3.5,3.5,0,0,1,6.094,0A5.017,5.017,0,0,1,126.452,65.489Zm-1.121-5.324V59.71a1.121,1.121,0,1,1,2.242,0v.455a1.121,1.121,0,1,1-2.242,0Zm5.18,3.27a4.86,4.86,0,0,0-2.064-1.73,2.509,2.509,0,0,0,.527-1.54V59.71a2.522,2.522,0,1,0-5.044,0v.455a2.509,2.509,0,0,0,.527,1.54,4.86,4.86,0,0,0-2.064,1.73,5.044,5.044,0,1,1,8.118,0Z" transform="translate(-120.007 -54)" fill="#b1b1b1" stroke="#b1b1b1" stroke-width="0.3"/>
    </g>
    <g id="Group_2717" data-name="Group 2717" transform="translate(12.367 26.816)">
      <path id="Path_18847" data-name="Path 18847" d="M206.491,438h-3.783a.7.7,0,0,0,0,1.4h3.783a.7.7,0,0,0,0-1.4Z" transform="translate(-202.007 -438)" fill="#b1b1b1" stroke="#b1b1b1" stroke-width="0.3"/>
    </g>
    <g id="Group_2719" data-name="Group 2719" transform="translate(6.727 23.76)">
      <path id="Path_18848" data-name="Path 18848" d="M124.656,382h-9.948a.7.7,0,0,0,0,1.4h9.948a.7.7,0,0,0,0-1.4Z" transform="translate(-114.007 -382)" fill="#b1b1b1" stroke="#b1b1b1" stroke-width="0.3"/>
    </g>
    <g id="Group_2721" data-name="Group 2721" transform="translate(6.727 20.275)">
      <path id="Path_18849" data-name="Path 18849" d="M124.656,326h-9.948a.7.7,0,0,0,0,1.4h9.948a.7.7,0,0,0,0-1.4Z" transform="translate(-114.007 -326)" fill="#b1b1b1" stroke="#b1b1b1" stroke-width="0.3"/>
    </g>
    <g id="Group_2723" data-name="Group 2723" transform="translate(3.994 16.793)">
      <path id="Path_18850" data-name="Path 18850" d="M72.483,270.205a.7.7,0,1,0,.205.5A.706.706,0,0,0,72.483,270.205Z" transform="translate(-71.287 -270)" fill="#b1b1b1" stroke="#b1b1b1" stroke-width="0.3"/>
    </g>
    <g id="Group_2725" data-name="Group 2725" transform="translate(3.994 20.275)">
      <path id="Path_18851" data-name="Path 18851" d="M72.483,326.205a.7.7,0,1,0,.205.5A.707.707,0,0,0,72.483,326.205Z" transform="translate(-71.287 -326)" fill="#b1b1b1" stroke="#b1b1b1" stroke-width="0.3"/>
    </g>
    <g id="Group_2727" data-name="Group 2727" transform="translate(3.994 23.76)">
      <path id="Path_18852" data-name="Path 18852" d="M72.483,382.205a.7.7,0,1,0,.205.5A.707.707,0,0,0,72.483,382.205Z" transform="translate(-71.287 -382)" fill="#b1b1b1" stroke="#b1b1b1" stroke-width="0.3"/>
    </g>
    <g id="Group_2729" data-name="Group 2729" transform="translate(6.727 16.793)">
      <path id="Path_18853" data-name="Path 18853" d="M124.656,270h-9.948a.7.7,0,0,0,0,1.4h9.948a.7.7,0,0,0,0-1.4Z" transform="translate(-114.007 -270)" fill="#b1b1b1" stroke="#b1b1b1" stroke-width="0.3"/>
    </g>
    <g id="Group_2731" data-name="Group 2731" transform="translate(20.979 1.865)">
      <path id="Path_18854" data-name="Path 18854" d="M311.139,125.071a2.942,2.942,0,0,0-4.019,1.077l-2.513,4.352-6.3,10.918a.7.7,0,0,0-.09.273l-.621,5.559a.7.7,0,0,0,1.112.642l4.5-3.317a.7.7,0,0,0,.191-.214l8.816-15.27A2.946,2.946,0,0,0,311.139,125.071Zm-11.975,20.742.324-2.9,2.028,1.171Zm3.373-2.76-2.67-1.541,7.075-12.254,2.669,1.541ZM311,128.389l-.691,1.2-2.669-1.541.691-1.2A1.541,1.541,0,0,1,311,128.389Z" transform="translate(-297.589 -124.675)" fill="#b1b1b1" stroke="#b1b1b1" stroke-width="0.3"/>
    </g>
  </g>
</svg>
