<svg id="Group_822" data-name="Group 822" xmlns="http://www.w3.org/2000/svg" xmlns:xlink="http://www.w3.org/1999/xlink" width="30.869" height="31.569" viewBox="0 0 30.869 31.569">
  <defs>
    <linearGradient id="linear-gradient" x1="0.5" x2="0.5" y2="1" gradientUnits="objectBoundingBox">
      <stop offset="0" stop-color="#fec107"/>
      <stop offset="1" stop-color="#ffa827"/>
    </linearGradient>
  </defs>
  <path id="Path_1833" data-name="Path 1833" d="M120.968,258.958a.716.716,0,0,0-.717-.716h-2.5a.716.716,0,0,0-.716.716v2.5a.716.716,0,0,0,.716.716h2.5a.716.716,0,0,0,.717-.716v-2.5Z" transform="translate(-109.816 -241.542)" fill="#82af40"/>
  <path id="Path_1834" data-name="Path 1834" d="M217.6,258.958a.716.716,0,0,0-.716-.716h-2.5a.716.716,0,0,0-.716.716v2.5a.716.716,0,0,0,.716.716h2.5a.716.716,0,0,0,.716-.716Z" transform="translate(-200.202 -241.542)" fill="#b1b1b1"/>
  <path id="Path_1835" data-name="Path 1835" d="M314.231,258.958a.716.716,0,0,0-.716-.716h-2.5a.716.716,0,0,0-.717.716v2.5a.716.716,0,0,0,.717.716h2.5a.716.716,0,0,0,.716-.716Z" transform="translate(-290.581 -241.542)" fill="#b1b1b1"/>
  <path id="Path_1836" data-name="Path 1836" d="M120.968,355.591a.716.716,0,0,0-.717-.716h-2.5a.716.716,0,0,0-.716.716v2.5a.716.716,0,0,0,.716.716h2.5a.716.716,0,0,0,.717-.716v-2.5Z" transform="translate(-109.816 -331.925)" fill="#b1b1b1"/>
  <path id="Path_1837" data-name="Path 1837" d="M217.6,355.591a.716.716,0,0,0-.716-.716h-2.5a.716.716,0,0,0-.716.716v2.5a.716.716,0,0,0,.716.716h2.5a.716.716,0,0,0,.716-.716Z" transform="translate(-200.202 -331.925)" fill="url(#linear-gradient)"/>
  <path id="Path_1838" data-name="Path 1838" d="M314.231,355.591a.716.716,0,0,0-.716-.716h-2.5a.716.716,0,0,0-.717.716v2.5a.716.716,0,0,0,.717.716h2.5a.716.716,0,0,0,.716-.716v-2.5Z" transform="translate(-290.581 -331.925)" fill="#b1b1b1"/>
  <path id="Path_1839" data-name="Path 1839" d="M33.532,54.156v3.819a3.119,3.119,0,0,1-3.126,3.117H28.434a3.135,3.135,0,0,1-3.145-3.117V54.142H16.4v3.832a3.135,3.135,0,0,1-3.144,3.117H11.285a3.119,3.119,0,0,1-3.126-3.117V54.156a2.843,2.843,0,0,0-2.748,2.828v22.38a2.844,2.844,0,0,0,2.83,2.846H33.45a2.847,2.847,0,0,0,2.83-2.846V56.983A2.842,2.842,0,0,0,33.532,54.156Zm-.916,23.814a1.223,1.223,0,0,1-1.223,1.223H10.244a1.223,1.223,0,0,1-1.223-1.223V66.409a1.223,1.223,0,0,1,1.223-1.224H31.393a1.223,1.223,0,0,1,1.223,1.224v11.56Z" transform="translate(-5.411 -50.641)" fill="#b1b1b1"/>
  <path id="Path_1840" data-name="Path 1840" d="M80.622,8.4h1.951a1.072,1.072,0,0,0,1.072-1.071V1.072A1.072,1.072,0,0,0,82.573,0H80.622A1.072,1.072,0,0,0,79.55,1.072v6.26A1.072,1.072,0,0,0,80.622,8.4Z" transform="translate(-74.755 0)" fill="#b1b1b1"/>
  <path id="Path_1841" data-name="Path 1841" d="M345.53,8.4h1.951a1.071,1.071,0,0,0,1.072-1.071V1.072A1.072,1.072,0,0,0,347.481,0H345.53a1.072,1.072,0,0,0-1.072,1.072v6.26A1.072,1.072,0,0,0,345.53,8.4Z" transform="translate(-322.532 0)" fill="#b1b1b1"/>
</svg>
