<?xml version="1.0" encoding="iso-8859-1"?>
<!-- Generator: Adobe Illustrator 16.0.0, SVG Export Plug-In . SVG Version: 6.00 Build 0)  -->
<!DOCTYPE svg PUBLIC "-//W3C//DTD SVG 1.1//EN" "http://www.w3.org/Graphics/SVG/1.1/DTD/svg11.dtd">
<svg version="1.1" id="Capa_1" xmlns="http://www.w3.org/2000/svg" xmlns:xlink="http://www.w3.org/1999/xlink" x="0px" y="0px"
	 width="416.592px" height="416.592px" viewBox="0 0 416.592 416.592" style="enable-background:new 0 0 416.592 416.592;"
	 xml:space="preserve">
<g>
	<g>
		<path d="M52.973,202.847c3.564,0,7.138-1.327,9.908-3.997c5.687-5.475,5.852-14.519,0.378-20.203l-38.678-40.139
			c-5.476-5.683-14.524-5.851-20.206-0.377c-5.68,5.473-5.854,14.521-0.376,20.202l38.682,40.14
			C45.483,201.384,49.227,202.847,52.973,202.847z"/>
		<path d="M97.321,154.729c2.474,5.078,7.559,8.03,12.85,8.03c2.105,0,4.234-0.465,6.255-1.447
			c7.091-3.46,10.036-12.014,6.577-19.105L98.569,92.08c-3.459-7.092-12.016-10.039-19.104-6.583
			c-7.096,3.459-10.045,12.013-6.587,19.104L97.321,154.729z"/>
		<path d="M160.632,130.559c1.076,7.08,7.168,12.152,14.109,12.152c0.716,0,1.436-0.054,2.159-0.165
			c7.8-1.182,13.17-8.463,11.987-16.265l-8.352-55.12c-1.182-7.8-8.461-13.169-16.27-11.987
			c-7.799,1.182-13.169,8.465-11.986,16.269L160.632,130.559z"/>
		<path d="M239.688,142.544c0.726,0.111,1.445,0.166,2.161,0.166c6.939,0,13.032-5.072,14.11-12.15l8.351-55.118
			c1.184-7.804-4.188-15.087-11.986-16.269c-7.806-1.182-15.088,4.186-16.27,11.987l-8.352,55.117
			C226.519,134.081,231.888,141.362,239.688,142.544z"/>
		<path d="M300.167,161.312c2.019,0.981,4.147,1.445,6.253,1.445c5.292,0,10.379-2.954,12.851-8.03l24.441-50.126
			c3.459-7.092,0.509-15.645-6.587-19.104c-7.088-3.456-15.646-0.51-19.104,6.583l-24.434,50.13
			C290.129,149.3,293.077,157.854,300.167,161.312z"/>
		<path d="M412.218,138.131c-5.681-5.473-14.729-5.306-20.207,0.375l-38.682,40.14c-5.474,5.684-5.309,14.728,0.38,20.204
			c2.769,2.67,6.34,3.997,9.907,3.997c3.749,0,7.488-1.463,10.291-4.375l38.686-40.14
			C418.071,152.652,417.898,143.605,412.218,138.131z"/>
		<path d="M374.261,244.769c-0.7-0.885-17.482-21.884-45.64-42.57c-38.075-27.974-79.684-42.76-120.326-42.76
			c-40.646,0-82.254,14.786-120.324,42.76c-27.471,20.18-43.863,40.338-45.653,42.585l-8.398,10.623
			c-1.438,1.818-1.438,4.385,0,6.203l8.403,10.626c0.694,0.88,17.341,21.791,45.646,42.583
			c38.073,27.976,79.682,42.763,120.326,42.763c40.643,0,82.25-14.787,120.325-42.762c28.15-20.68,44.945-41.69,45.651-42.581
			l8.401-10.63c1.438-1.817,1.438-4.384-0.001-6.201L374.261,244.769z M357.454,258.952c-0.622,0.789-15.579,19.542-41.521,38.595
			c-34.369,25.255-71.595,38.604-107.637,38.604c-36.043,0-73.269-13.349-107.635-38.604
			c-26.008-19.105-41.361-38.394-41.521-38.592l-0.348-0.444l0.354-0.447c0.152-0.195,15.507-19.484,41.514-38.592
			c22.464-16.507,46.149-27.925,69.928-33.855c6.343,3.938,10.575,10.951,10.575,18.965c0,12.334-10,22.333-22.334,22.333
			c-6.482,0-12.316-2.764-16.396-7.174c-1.168,4.981-1.807,10.169-1.807,15.507c0,37.373,30.297,67.669,67.67,67.669
			c37.374,0,67.67-30.296,67.67-67.669c0-17.907-6.969-34.178-18.326-46.282c19.846,6.453,39.496,16.694,58.292,30.505
			c25.94,19.055,40.898,37.809,41.521,38.597l0.349,0.442L357.454,258.952z"/>
	</g>
</g>
<g>
</g>
<g>
</g>
<g>
</g>
<g>
</g>
<g>
</g>
<g>
</g>
<g>
</g>
<g>
</g>
<g>
</g>
<g>
</g>
<g>
</g>
<g>
</g>
<g>
</g>
<g>
</g>
<g>
</g>
</svg>
