<svg id="XMLID_184_" xmlns="http://www.w3.org/2000/svg" width="35.544" height="35.787" viewBox="0 0 35.544 35.787">
  <path id="XMLID_190_" d="M147.611,221.522l-1.11-3.392v-1.683a3.02,3.02,0,0,0-3-3.005h-1.284a3.009,3.009,0,0,0-2.843,2.077l.458-.254-4.185,3.66a1.494,1.494,0,0,0-.267,1.94l2.576,3.948a1.493,1.493,0,0,0,2.5-1.632l-1.867-2.863,3.209-2.807-1.929,2.586,1.586,2.431a2.681,2.681,0,0,1-2.242,4.151v2.431h.012v3.718l-2.115,6.394a1.792,1.792,0,0,0,3.4,1.125l2.205-6.668a1.791,1.791,0,0,0,.09-.562V230.47h1.42l.868,2.127-1.042,6.922a1.792,1.792,0,0,0,3.544.532l1.114-7.409a1.79,1.79,0,0,0-.113-.943c-.932-2.285-.481-1.178-2.094-5.135v-1.7l.978,1.185a1.493,1.493,0,0,0,2.3-1.9Z" transform="translate(-135.133 -205.791)" fill="#b1b1b1"/>
  <path id="XMLID_189_" d="M333.037,154.126a3.49,3.49,0,1,0-3.489-3.489A3.489,3.489,0,0,0,333.037,154.126Z" transform="translate(-307.111 -147.147)" fill="#b1b1b1"/>
  <path id="XMLID_188_" d="M311.393,219.808l-4.771-.828-1.772-3.623,1.809,2.153v-1.062a3.005,3.005,0,0,0-3-3.005h-1.284c-1.524,0-1.9.73-6.212,4.235a1.5,1.5,0,0,0-.55,1.242l.311,5.6a1.493,1.493,0,0,0,2.981-.166l-.269-4.835.734-.6c0,18.107.014,13.911.014,13.911l-2.116,6.395a1.792,1.792,0,0,0,3.4,1.125l2.207-6.667a1.794,1.794,0,0,0,.09-.563v-4.006h.865l1.422,3.485-1.041,6.923a1.792,1.792,0,0,0,3.543.532l1.114-7.409a1.79,1.79,0,0,0-.113-.943l-2.094-5.135v-3.338l-1.5-.261-.523-.091a1.773,1.773,0,0,1-1.43-1.376l-1.035-4.833,2.108,4.308a1.49,1.49,0,0,0,1.086.814c.209.036,5.568.981,5.779.981a1.492,1.492,0,0,0,.253-2.963Z" transform="translate(-277.087 -205.791)" fill="#b1b1b1"/>
  <path id="XMLID_185_" d="M171.8,150.637a3.49,3.49,0,1,0,3.488-3.49A3.488,3.488,0,0,0,171.8,150.637Z" transform="translate(-167.569 -147.147)" fill="#b1b1b1"/>
</svg>
