<svg id="increased-revenue" xmlns="http://www.w3.org/2000/svg" width="28.869" height="29.224" viewBox="0 0 28.869 29.224">
  <g id="Layer_1_87_" transform="translate(0)">
    <g id="Group_913" data-name="Group 913">
      <path id="Path_1919" data-name="Path 1919" d="M40.616,8.907c0-.52-.528-.672-.94-.764V9.656C40.135,9.625,40.616,9.41,40.616,8.907Z" transform="translate(-15.185 -3.08)" fill="#b1b1b1"/>
      <path id="Path_1920" data-name="Path 1920" d="M38.417,4.185c-.52.015-.857.321-.857.65,0,.382.285.6.857.718V4.185Z" transform="translate(-14.384 -1.583)" fill="#b1b1b1"/>
      <path id="Path_1921" data-name="Path 1921" d="M36.47,9.243a4.622,4.622,0,1,0-4.623-4.621A4.627,4.627,0,0,0,36.47,9.243ZM34.438,3.427a1.673,1.673,0,0,1,1.819-1.6V1.416a.231.231,0,1,1,.458,0v.407c.6.016,1.819.389,1.819,1.14a.459.459,0,0,1-.482.473c-.5,0-.49-.818-1.337-.833V4.054c1.01.214,1.9.512,1.9,1.689,0,1.023-.764,1.544-1.9,1.613v.473a.231.231,0,1,1-.458,0V7.356c-1.291-.032-1.933-.8-1.933-1.408a.44.44,0,0,1,.473-.481c.856,0,.191,1.054,1.46,1.109v-1.6C35.124,4.772,34.438,4.276,34.438,3.427Z" transform="translate(-12.223)" fill="#b1b1b1"/>
      <path id="Path_1922" data-name="Path 1922" d="M6.123,33.113H2.138A1.328,1.328,0,0,0,.81,34.442v5.977a1.329,1.329,0,0,0,1.328,1.329H6.123a1.328,1.328,0,0,0,1.328-1.329V34.442A1.328,1.328,0,0,0,6.123,33.113Z" transform="translate(-0.483 -12.525)" fill="#b1b1b1"/>
      <path id="Path_1923" data-name="Path 1923" d="M22.687,25.637H18.7a1.328,1.328,0,0,0-1.328,1.329V37.592A1.328,1.328,0,0,0,18.7,38.92h3.985a1.328,1.328,0,0,0,1.329-1.329V26.964A1.328,1.328,0,0,0,22.687,25.637Z" transform="translate(-6.749 -9.697)" fill="#b1b1b1"/>
      <path id="Path_1924" data-name="Path 1924" d="M39.254,17.091H35.27a1.328,1.328,0,0,0-1.329,1.328V34.358a1.328,1.328,0,0,0,1.329,1.329h3.984a1.328,1.328,0,0,0,1.329-1.329V18.42A1.328,1.328,0,0,0,39.254,17.091Z" transform="translate(-13.016 -6.465)" fill="#b1b1b1"/>
      <path id="Path_1925" data-name="Path 1925" d="M18.558,10.544l-3.3-.69a.664.664,0,0,0-.722.962l.731,1.375L.644,19.735a.664.664,0,0,0,.305,1.253.653.653,0,0,0,.3-.074l14.638-7.551.671,1.261a.664.664,0,0,0,.586.353h.034a.663.663,0,0,0,.581-.412l1.274-3.12a.661.661,0,0,0-.029-.563A.675.675,0,0,0,18.558,10.544Z" transform="translate(-0.285 -3.722)" fill="#b1b1b1"/>
    </g>
  </g>
</svg>
