<svg id="icon_2_" data-name="icon (2)" xmlns="http://www.w3.org/2000/svg" width="29.869" height="30.859" viewBox="0 0 29.869 30.859">
  <g id="Group_898" data-name="Group 898" transform="translate(0)">
    <path id="Path_1907" data-name="Path 1907" d="M4.193,7.474H5.6a.852.852,0,0,0,.933-.741V.739A.85.85,0,0,0,5.6,0h-1.4a.856.856,0,0,0-.935.739V6.732A.854.854,0,0,0,4.193,7.474Z" transform="translate(2.703)" fill="#b1b1b1"/>
    <path id="Path_1908" data-name="Path 1908" d="M11.594,7.474H13a.849.849,0,0,0,.933-.741V.739A.849.849,0,0,0,13,0h-1.4a.854.854,0,0,0-.933.739V6.732A.854.854,0,0,0,11.594,7.474Z" transform="translate(9.972)" fill="#b1b1b1"/>
    <path id="Path_1909" data-name="Path 1909" d="M28.989,1.443H25.271v4.59a1.967,1.967,0,0,1-2.055,1.859h-1.4a1.969,1.969,0,0,1-2.057-1.859V1.443H10.6v4.59A1.967,1.967,0,0,1,8.544,7.892h-1.4A1.969,1.969,0,0,1,5.092,6.033V1.443H1.372A1.125,1.125,0,0,0,.25,2.569V28.321a1.227,1.227,0,0,0,.688,1.122H28.561c1.05,0,1.558-.5,1.558-1.122V2.565A1.131,1.131,0,0,0,28.989,1.443Zm-.6,25.455c0,1.118-.963,1.021-.963,1.021H17.354a57.424,57.424,0,0,0,11.033-7.468Zm.212-9.539c-.422,1.667-1.356,3.6-3.058,2.335-2.481-1.837-4.927-3.4-5.242.3-.26,3.112-6.011,7.343-7.264,8.227H2.119a.349.349,0,0,1-.351-.351V11.992a.351.351,0,0,1,.351-.353H28.248a.354.354,0,0,1,.353.353l0,5.367Z" transform="translate(-0.25 1.417)" fill="#b1b1b1"/>
    <rect id="Rectangle_329" data-name="Rectangle 329" width="4.364" height="4.362" transform="translate(5.961 15.795)" fill="#b1b1b1"/>
    <rect id="Rectangle_330" data-name="Rectangle 330" width="4.36" height="4.362" transform="translate(13.14 15.795)" fill="#b1b1b1"/>
    <rect id="Rectangle_331" data-name="Rectangle 331" width="4.364" height="4.362" transform="translate(5.961 22.413)" fill="#b1b1b1"/>
    <path id="Path_1910" data-name="Path 1910" d="M6.88,15.671H8.142a37.417,37.417,0,0,0,3.1-3.274V11.309H6.88Z" transform="translate(6.26 11.104)" fill="#b1b1b1"/>
    <path id="Path_1911" data-name="Path 1911" d="M10.386,10.027a2.006,2.006,0,0,1,1.445-.561,5.742,5.742,0,0,1,2.915,1.181V7.97h-4.36Z" transform="translate(9.702 7.825)" fill="#b1b1b1"/>
  </g>
</svg>
