<svg id="uploading-archive" xmlns="http://www.w3.org/2000/svg" width="28.869" height="32.202" viewBox="0 0 28.869 32.202">
  <g id="Group_915" data-name="Group 915" transform="translate(0)">
    <g id="Group_914" data-name="Group 914">
      <path id="Path_1926" data-name="Path 1926" d="M21.756,0,15.333,6.424c-.64.625-.5,1.066.4,1.066h3.585V15.3a2.442,2.442,0,0,0,2.442,2.442h0A2.442,2.442,0,0,0,24.2,15.3V7.489h3.587c.892,0,1.033-.441.394-1.066Z" transform="translate(-7.487)" fill="#b1b1b1"/>
      <path id="Path_1927" data-name="Path 1927" d="M30.99,25.77H27.3a.609.609,0,0,0-.61.61V37.33H7.644V26.38a.61.61,0,0,0-.61-.61H3.341a.61.61,0,0,0-.61.61V38.871A3.375,3.375,0,0,0,6.1,42.242H28.228A3.375,3.375,0,0,0,31.6,38.871V26.38A.609.609,0,0,0,30.99,25.77Z" transform="translate(-2.731 -10.04)" fill="#b1b1b1"/>
    </g>
  </g>
</svg>
